<svg width="100" height="100" viewBox="0 0 100 100" fill="none" xmlns="http://www.w3.org/2000/svg">
  <path d="M1.5 0C0.671573 0 0 0.671573 0 1.5V98.5C0 99.3284 0.671573 100 1.5 100H98.5C99.3284 100 100 99.3284 100 98.5V1.5C100 0.671573 99.3284 0 98.5 0H1.5Z" fill="#1E293B" fill-opacity="0.02"/>
  <path d="M0 1.5C0 0.671573 0.671573 0 1.5 0V0C2.32843 0 3 0.671573 3 1.5V98.5C3 99.3284 2.32843 100 1.5 100V100C0.671573 100 0 99.3284 0 98.5V1.5Z" fill="#4F46E5" fill-opacity="0.05"/>
  <path d="M97 1.5C97 0.671573 97.6716 0 98.5 0V0C99.3284 0 100 0.671573 100 1.5V98.5C100 99.3284 99.3284 100 98.5 100V100C97.6716 100 97 99.3284 97 98.5V1.5Z" fill="#4F46E5" fill-opacity="0.05"/>
  <path d="M1.5 0C0.671573 0 0 0.671573 0 1.5V1.5C0 2.32843 0.671573 3 1.5 3H98.5C99.3284 3 100 2.32843 100 1.5V1.5C100 0.671573 99.3284 0 98.5 0H1.5Z" fill="#4F46E5" fill-opacity="0.05"/>
  <path d="M1.5 97C0.671573 97 0 97.6716 0 98.5V98.5C0 99.3284 0.671573 100 1.5 100H98.5C99.3284 100 100 99.3284 100 98.5V98.5C100 97.6716 99.3284 97 98.5 97H1.5Z" fill="#4F46E5" fill-opacity="0.05"/>
</svg> 